<?xml version="1.0" encoding="iso-8859-1"?>
<!-- Generator: Adobe Illustrator 16.0.0, SVG Export Plug-In . SVG Version: 6.00 Build 0)  -->
<!DOCTYPE svg PUBLIC "-//W3C//DTD SVG 1.1//EN" "http://www.w3.org/Graphics/SVG/1.1/DTD/svg11.dtd">
<svg xmlns="http://www.w3.org/2000/svg" xmlns:xlink="http://www.w3.org/1999/xlink" version="1.1" id="Capa_1" x="0px" y="0px" width="512px" height="512px" viewBox="0 0 473.068 473.068" style="enable-background:new 0 0 473.068 473.068;" xml:space="preserve">
<g>
	<g id="Layer_2_33_">
		<path d="M355.518,181.955c8.791-6.139,29.379-20.519,29.379-55.351v-71.77h9.82c4.494,0,8.17-3.679,8.17-8.169v-38.5    c0-4.49-3.676-8.165-8.17-8.165H78.361c-4.496,0-8.179,3.675-8.179,8.165v38.5c0,4.491,3.683,8.169,8.179,8.169h9.816v73.071    c0,34.499,10.5,42.576,29.063,53.89l80.759,49.203v20.984c-20.345,12.23-73.464,44.242-80.439,49.107    c-8.792,6.135-29.383,20.51-29.383,55.352v61.793h-9.816c-4.496,0-8.179,3.676-8.179,8.166v38.498c0,4.49,3.683,8.17,8.179,8.17    h316.356c4.494,0,8.17-3.68,8.17-8.17V426.4c0-4.49-3.676-8.166-8.17-8.166h-9.82v-63.104c0-34.493-10.496-42.572-29.062-53.885    l-80.756-49.202v-20.987C295.42,218.831,348.545,186.822,355.518,181.955z M252.723,272.859l87.812,53.5    c6.735,4.109,10.338,6.373,11.996,9.002c1.988,3.164,2.965,9.627,2.965,19.768v63.104H117.579v-61.793    c0-19.507,9.725-26.289,16.813-31.242c5.543-3.865,54.398-33.389,85.873-52.289c4.429-2.658,7.139-7.441,7.139-12.611v-37.563    c0-5.123-2.682-9.883-7.057-12.55l-87.804-53.504c-6.733-4.105-10.336-6.369-11.999-9.009c-1.993-3.156-2.966-9.626-2.966-19.767    V54.835h237.917v71.77c0,19.5-9.721,26.288-16.808,31.235c-5.551,3.872-54.396,33.395-85.877,52.295    c-4.428,2.658-7.135,7.442-7.135,12.601v37.563C245.676,265.431,248.35,270.188,252.723,272.859z" fill="#FFFFFF"/>
	</g>
</g>
<g>
</g>
<g>
</g>
<g>
</g>
<g>
</g>
<g>
</g>
<g>
</g>
<g>
</g>
<g>
</g>
<g>
</g>
<g>
</g>
<g>
</g>
<g>
</g>
<g>
</g>
<g>
</g>
<g>
</g>
</svg>
